<svg width="30" height="30" viewBox="0 0 30 30" fill="none" xmlns="http://www.w3.org/2000/svg">
<mask id="mask0" mask-type="alpha" maskUnits="userSpaceOnUse" x="0" y="0" width="30" height="30">
<path fill-rule="evenodd" clip-rule="evenodd" d="M0 0H29.9998V30H0V0Z" fill="white"/>
</mask>
<g mask="url(#mask0)">
<path fill-rule="evenodd" clip-rule="evenodd" d="M29.9999 3V27C29.9999 28.65 28.6514 30 26.9999 30H19.6649L19.6799 19.275H23.3849C23.7149 19.275 23.9999 19.035 24.0449 18.705L24.4499 15.24C24.4949 14.85 24.1949 14.505 23.7899 14.505H19.6649V11.61C19.6649 10.305 20.0264 9.42 21.9149 9.42L23.6564 9.405C24.0149 9.405 24.2999 9.12 24.2999 8.76V5.835C24.2999 5.475 24.0149 5.19 23.6564 5.19H20.8049C17.3549 5.19 14.9849 7.29 14.9849 11.175V14.505H12.2099C11.8499 14.505 11.5499 14.805 11.5499 15.165L11.5649 18.63C11.5649 18.99 11.8649 19.275 12.2249 19.275H14.9999L14.9849 30H2.99985C1.34985 30 -0.000148773 28.65 -0.000148773 27V3C-0.000148773 1.35 1.34985 0 2.99985 0H26.9999C28.6514 0 29.9999 1.35 29.9999 3Z" fill="white"/>
</g>
</svg>
