<svg width="59" height="48" viewBox="0 0 59 48" fill="none" xmlns="http://www.w3.org/2000/svg">
<path d="M37.5 0C38.2072 0 38.8855 0.280951 39.3856 0.781048C39.8857 1.28115 40.1666 1.95942 40.1666 2.66667V8H50.8333C51.5405 8 52.2188 8.28095 52.7189 8.78105C53.219 9.28115 53.5 9.95942 53.5 10.6667V42.6667H58.8333V48H0.166626V42.6667H5.49996V10.6667C5.49996 9.95942 5.78091 9.28115 6.28101 8.78105C6.7811 8.28095 7.45938 8 8.16663 8H18.8333V2.66667C18.8333 1.95942 19.1142 1.28115 19.6143 0.781048C20.1144 0.280951 20.7927 0 21.5 0H37.5ZM24.1666 13.3333H18.8333V42.6667H24.1666V13.3333ZM40.1666 13.3333H34.8333V42.6667H40.1666V13.3333ZM34.8333 5.33333H24.1666V8H34.8333V5.33333Z" fill="black" fill-opacity="0.5"/>
</svg>
